<svg xmlns="http://www.w3.org/2000/svg" xmlns:xlink="http://www.w3.org/1999/xlink" width="63" height="63" viewBox="0 0 63 63" fill="none">
<path    stroke="rgba(255, 255, 255, 1)" stroke-width="2"  stroke-linecap="round"  d="M26.4289 43.3588C26.728 44.4751 27.3871 45.4616 28.304 46.1651C29.2209 46.8687 30.3443 47.25 31.5 47.25">
</path>
<path   fill="rgba(255, 255, 255, 1)"  d="M34.6245 8.58936L40.8775 19.2194C43.981 24.4953 46.4025 30.1437 48.0841 36.0293C50.9615 46.1001 43.3997 56.125 32.9259 56.125L30.0741 56.125C19.6003 56.125 12.0385 46.1001 14.9159 36.0293C16.5975 30.1437 19.019 24.4953 22.1225 19.2194L28.3755 8.58936C29.7771 6.20662 33.2229 6.20662 34.6245 8.58936L32.9006 9.6034C32.2723 8.53528 30.7277 8.53528 30.0994 9.6034L23.8464 20.2334C20.8287 25.3636 18.4741 30.8558 16.839 36.5787C14.3266 45.3719 20.9291 54.125 30.0741 54.125L32.9259 54.125C42.0709 54.125 48.6734 45.3719 46.161 36.5787C44.5259 30.8558 42.1713 25.3636 39.1536 20.2334L32.9006 9.6034L34.6245 8.58936Z">
</path>
</svg>
