<svg xmlns="http://www.w3.org/2000/svg" xmlns:xlink="http://www.w3.org/1999/xlink" width="63" height="63" viewBox="0 0 63 63" fill="none">
<path   fill="rgba(255, 255, 255, 1)"  d="M41.1874 27.5625M41.1874 27.5625L41.1874 42.8974L41.1874 48.537C41.1874 53.1624 37.4378 56.9375 32.8124 56.9375C28.187 56.9375 24.4374 53.1879 24.4374 48.5625L24.4374 27.5625L25.4374 27.5625L25.4374 48.5625C25.4374 52.6356 28.7393 55.9375 32.8124 55.9375C36.8855 55.9375 40.1874 52.6101 40.1874 48.537L40.1874 42.8974L40.1874 27.5625L41.1874 27.5625Z">
</path>
<path fill-rule="evenodd"  fill="rgba(255, 255, 255, 1)"  d="M40.6875 21.8124L43.3125 21.8124C45.0384 21.8124 46.4375 23.2115 46.4375 24.9374C46.4375 26.6633 45.0384 28.0624 43.3125 28.0624L22.3125 28.0624C20.5866 28.0624 19.1875 26.6633 19.1875 24.9374C19.1875 23.2115 20.5866 21.8124 22.3125 21.8124L30.1875 21.8124C30.4636 21.8124 30.6875 22.0363 30.6875 22.3124C30.6875 22.5886 30.4636 22.8124 30.1875 22.8124L22.3125 22.8124C21.1389 22.8124 20.1875 23.7638 20.1875 24.9374C20.1875 26.111 21.1389 27.0624 22.3125 27.0624L43.3125 27.0624C44.4861 27.0624 45.4375 26.111 45.4375 24.9374C45.4375 23.7638 44.4861 22.8124 43.3125 22.8124L40.6875 22.8124C40.4114 22.8124 40.1875 22.5886 40.1875 22.3124C40.1875 22.0363 40.4114 21.8124 40.6875 21.8124Z">
</path>
<path   fill="rgba(255, 255, 255, 1)"  d="M35.9376 40.6876L35.9376 48.5626C35.9376 50.2885 34.5385 51.6876 32.8126 51.6876C31.0867 51.6876 29.6876 50.2885 29.6876 48.5626L29.6876 40.6876C29.6876 40.4114 29.9115 40.1876 30.1876 40.1876L35.4376 40.1876L35.4376 41.1876L30.1876 41.1876L30.1876 40.6876L30.6876 40.6876L30.6876 48.5626C30.6876 49.7362 31.639 50.6876 32.8126 50.6876C33.9862 50.6876 34.9376 49.7362 34.9376 48.5626L34.9376 40.6876L35.9376 40.6876ZM35.9376 40.6876L35.4376 40.6876L35.4376 40.1876C35.7424 40.2162 35.909 40.3828 35.9376 40.6876Z">
</path>
<path fill-rule="evenodd"  fill="rgba(255, 255, 255, 1)"  d="M41.9999 15.7501C44.8994 15.7501 47.2499 13.3996 47.2499 10.5001C47.2499 7.60057 44.8994 5.25006 41.9999 5.25006C39.1004 5.25006 36.7499 7.60057 36.7499 10.5001C36.7499 13.3996 39.1004 15.7501 41.9999 15.7501ZM41.9999 6.25006C44.3471 6.25006 46.2499 8.15285 46.2499 10.5001C46.2499 12.8473 44.3471 14.7501 41.9999 14.7501C39.6527 14.7501 37.7499 12.8473 37.7499 10.5001C37.7499 8.15285 39.6527 6.25006 41.9999 6.25006Z">
</path>
<circle  cx="35.4376220703125" cy="22.31256103515625" r="1.3125"    fill="#FFFFFF" >
</circle>
<path fill-rule="evenodd"  fill="rgba(255, 255, 255, 1)"  d="M24.9374 18.3749C27.112 18.3749 28.8749 16.6121 28.8749 14.4374C28.8749 12.2628 27.112 10.4999 24.9374 10.4999C22.7628 10.4999 20.9999 12.2628 20.9999 14.4374C20.9999 16.6121 22.7628 18.3749 24.9374 18.3749ZM24.9374 11.4999C26.5597 11.4999 27.8749 12.8151 27.8749 14.4374C27.8749 16.0598 26.5597 17.3749 24.9374 17.3749C23.315 17.3749 21.9999 16.0598 21.9999 14.4374C21.9999 12.8151 23.315 11.4999 24.9374 11.4999Z">
</path>
</svg>
