<svg xmlns="http://www.w3.org/2000/svg" xmlns:xlink="http://www.w3.org/1999/xlink" width="63" height="63" viewBox="0 0 63 63" fill="none">
<path fill-rule="evenodd"  fill="rgba(255, 255, 255, 1)"  d="M31.5 42C37.299 42 42 37.299 42 31.5C42 25.701 37.299 21 31.5 21C25.701 21 21 25.701 21 31.5C21 37.299 25.701 42 31.5 42ZM31.5 23C36.1944 23 40 26.8056 40 31.5C40 36.1944 36.1944 40 31.5 40C26.8056 40 23 36.1944 23 31.5C23 26.8056 26.8056 23 31.5 23Z">
</path>
<path fill-rule="evenodd"  fill="rgba(255, 255, 255, 1)"  d="M30.517 7.875L30.517 13.125C30.517 13.6773 30.9571 14.125 31.5 14.125C32.0429 14.125 32.483 13.6773 32.483 13.125L32.483 7.875C32.483 7.32272 32.0429 6.875 31.5 6.875C30.9571 6.875 30.517 7.32272 30.517 7.875Z">
</path>
<path fill-rule="evenodd"  fill="rgba(255, 255, 255, 1)"  d="M30.517 49.875L30.517 55.125C30.517 55.6773 30.9571 56.125 31.5 56.125C32.0429 56.125 32.483 55.6773 32.483 55.125L32.483 49.875C32.483 49.3227 32.0429 48.875 31.5 48.875C30.9571 48.875 30.517 49.3227 30.517 49.875Z">
</path>
<path fill-rule="evenodd"  fill="rgba(255, 255, 255, 1)"  d="M47.5 14.0891L43.7877 17.8014C43.3971 18.1919 43.3964 18.8244 43.7861 19.214C44.1757 19.6037 44.8082 19.603 45.1987 19.2125L48.911 15.5002C49.3016 15.1096 49.3023 14.4772 48.9126 14.0875C48.523 13.6979 47.8905 13.6986 47.5 14.0891Z">
</path>
<path fill-rule="evenodd"  fill="rgba(255, 255, 255, 1)"  d="M17.8189 43.8049L14.1066 47.5172C13.7161 47.9078 13.7076 48.5324 14.0876 48.9125C14.4676 49.2925 15.0923 49.284 15.4828 48.8935L19.1951 45.1812C19.5857 44.7907 19.5942 44.166 19.2141 43.7859C18.8341 43.4059 18.2094 43.4144 17.8189 43.8049Z">
</path>
<path fill-rule="evenodd"  fill="rgba(255, 255, 255, 1)"  d="M55.125 30.517L49.875 30.517C49.3227 30.517 48.875 30.9571 48.875 31.5C48.875 32.0429 49.3227 32.4831 49.875 32.4831L55.125 32.4831C55.6773 32.4831 56.125 32.0429 56.125 31.5C56.125 30.9571 55.6773 30.517 55.125 30.517Z">
</path>
<path fill-rule="evenodd"  fill="rgba(255, 255, 255, 1)"  d="M13.125 30.517L7.87501 30.517C7.32272 30.517 6.87501 30.9571 6.87501 31.5C6.87501 32.0429 7.32272 32.4831 7.87501 32.4831L13.125 32.4831C13.6773 32.4831 14.125 32.0429 14.125 31.5C14.125 30.9571 13.6773 30.517 13.125 30.517Z">
</path>
<path fill-rule="evenodd"  fill="rgba(255, 255, 255, 1)"  d="M48.8936 47.5172L45.1813 43.8049C44.7908 43.4144 44.1661 43.4059 43.7861 43.7859C43.406 44.166 43.4145 44.7906 43.8051 45.1812L47.5174 48.8935C47.9079 49.284 48.5326 49.2925 48.9126 48.9125C49.2927 48.5324 49.2842 47.9077 48.8936 47.5172Z">
</path>
<path fill-rule="evenodd"  fill="rgba(255, 255, 255, 1)"  d="M19.1951 17.8187L15.4828 14.1064C15.0923 13.7159 14.4676 13.7074 14.0876 14.0875C13.7076 14.4675 13.7161 15.0922 14.1066 15.4827L17.8189 19.195C18.2094 19.5855 18.8341 19.594 19.2141 19.214C19.5942 18.8339 19.5857 18.2093 19.1951 17.8187Z">
</path>
</svg>
